<mxfile host="app.diagrams.net" modified="2023-04-27T12:40:34.696Z" agent="Mozilla/5.0 (Windows NT 10.0; Win64; x64) AppleWebKit/537.36 (KHTML, like Gecko) Chrome/110.0.0.0 YaBrowser/23.3.3.719 Yowser/2.5 Safari/537.36" version="21.1.8" etag="nag4e7Fkz-0wvSyEM9p0" type="device">
  <diagram id="VNAF43cgfUAacFHLIQAY" name="Страница 1">
    <mxGraphModel dx="737" dy="351" grid="1" gridSize="10" guides="1" tooltips="1" connect="1" arrows="1" fold="1" page="1" pageScale="1" pageWidth="827" pageHeight="1169" math="0" shadow="0">
      <root>
        <mxCell id="0" />
        <mxCell id="1" parent="0" />
        <mxCell id="yqs4WaLGmonXQbpwF4tF-1" value="Box" style="swimlane;fontStyle=1;align=center;verticalAlign=top;childLayout=stackLayout;horizontal=1;startSize=26;horizontalStack=0;resizeParent=1;resizeParentMax=0;resizeLast=0;collapsible=1;marginBottom=0;whiteSpace=wrap;html=1;" vertex="1" parent="1">
          <mxGeometry x="20" y="40" width="170" height="330" as="geometry" />
        </mxCell>
        <mxCell id="yqs4WaLGmonXQbpwF4tF-2" value="&lt;font style=&quot;font-size: 11px;&quot;&gt;+ pattern: re.Pattern&lt;br&gt;+ label_for_n: tkinter.Label&lt;br&gt;+ label_for_k: tkinter.Label&lt;br&gt;+ label_for_l: tkinter.Label&lt;br&gt;+ entry_for_n: tkinter.Entry&lt;br&gt;+ entry_for_k: tkinter.Entry&lt;br&gt;+ entry_for_l: tkinter.Entry&lt;br&gt;+ start_button: tkinter.Button&lt;br&gt;+ x: list&lt;br&gt;+ y: list&lt;br&gt;+ n: int&lt;br&gt;+ k: int&lt;br&gt;+ l: int&lt;br&gt;&lt;/font&gt;" style="text;strokeColor=none;fillColor=none;align=left;verticalAlign=top;spacingLeft=4;spacingRight=4;overflow=hidden;rotatable=0;points=[[0,0.5],[1,0.5]];portConstraint=eastwest;whiteSpace=wrap;html=1;" vertex="1" parent="yqs4WaLGmonXQbpwF4tF-1">
          <mxGeometry y="26" width="170" height="204" as="geometry" />
        </mxCell>
        <mxCell id="yqs4WaLGmonXQbpwF4tF-3" value="" style="line;strokeWidth=1;fillColor=none;align=left;verticalAlign=middle;spacingTop=-1;spacingLeft=3;spacingRight=3;rotatable=0;labelPosition=right;points=[];portConstraint=eastwest;strokeColor=inherit;" vertex="1" parent="yqs4WaLGmonXQbpwF4tF-1">
          <mxGeometry y="230" width="170" height="8" as="geometry" />
        </mxCell>
        <mxCell id="yqs4WaLGmonXQbpwF4tF-4" value="&lt;font style=&quot;font-size: 11px;&quot;&gt;+ validate_entry(str): bool&lt;br&gt;&lt;/font&gt;&lt;font style=&quot;&quot;&gt;&lt;font style=&quot;font-size: 11px;&quot;&gt;+&amp;nbsp;&lt;/font&gt;&lt;span style=&quot;font-size: 7px;&quot;&gt;create_coordinates_window(None): None&lt;/span&gt;&lt;br&gt;&lt;font style=&quot;font-size: 11px;&quot;&gt;+ get_child_coords(None): None&lt;br&gt;&lt;/font&gt;&lt;font style=&quot;font-size: 11px;&quot;&gt;+ get_coords(None): tuple&lt;br&gt;&lt;/font&gt;&lt;font style=&quot;font-size: 11px;&quot;&gt;+ get_info(None):tuple&lt;/font&gt;&lt;br&gt;&lt;/font&gt;" style="text;strokeColor=none;fillColor=none;align=left;verticalAlign=top;spacingLeft=4;spacingRight=4;overflow=hidden;rotatable=0;points=[[0,0.5],[1,0.5]];portConstraint=eastwest;whiteSpace=wrap;html=1;" vertex="1" parent="yqs4WaLGmonXQbpwF4tF-1">
          <mxGeometry y="238" width="170" height="92" as="geometry" />
        </mxCell>
        <mxCell id="yqs4WaLGmonXQbpwF4tF-9" value="Coord_Input" style="swimlane;fontStyle=1;align=center;verticalAlign=top;childLayout=stackLayout;horizontal=1;startSize=26;horizontalStack=0;resizeParent=1;resizeParentMax=0;resizeLast=0;collapsible=1;marginBottom=0;whiteSpace=wrap;html=1;" vertex="1" parent="1">
          <mxGeometry x="220" y="276" width="160" height="94" as="geometry" />
        </mxCell>
        <mxCell id="yqs4WaLGmonXQbpwF4tF-10" value="+ list_of_entries: list&lt;br&gt;+ start_button: tk.Button&lt;br&gt;" style="text;strokeColor=none;fillColor=none;align=left;verticalAlign=top;spacingLeft=4;spacingRight=4;overflow=hidden;rotatable=0;points=[[0,0.5],[1,0.5]];portConstraint=eastwest;whiteSpace=wrap;html=1;" vertex="1" parent="yqs4WaLGmonXQbpwF4tF-9">
          <mxGeometry y="26" width="160" height="34" as="geometry" />
        </mxCell>
        <mxCell id="yqs4WaLGmonXQbpwF4tF-11" value="" style="line;strokeWidth=1;fillColor=none;align=left;verticalAlign=middle;spacingTop=-1;spacingLeft=3;spacingRight=3;rotatable=0;labelPosition=right;points=[];portConstraint=eastwest;strokeColor=inherit;" vertex="1" parent="yqs4WaLGmonXQbpwF4tF-9">
          <mxGeometry y="60" width="160" height="8" as="geometry" />
        </mxCell>
        <mxCell id="yqs4WaLGmonXQbpwF4tF-12" value="+ validate_entry(str):bool" style="text;strokeColor=none;fillColor=none;align=left;verticalAlign=top;spacingLeft=4;spacingRight=4;overflow=hidden;rotatable=0;points=[[0,0.5],[1,0.5]];portConstraint=eastwest;whiteSpace=wrap;html=1;" vertex="1" parent="yqs4WaLGmonXQbpwF4tF-9">
          <mxGeometry y="68" width="160" height="26" as="geometry" />
        </mxCell>
        <mxCell id="yqs4WaLGmonXQbpwF4tF-13" value="Game_Box&lt;br&gt;" style="swimlane;fontStyle=1;align=center;verticalAlign=top;childLayout=stackLayout;horizontal=1;startSize=26;horizontalStack=0;resizeParent=1;resizeParentMax=0;resizeLast=0;collapsible=1;marginBottom=0;whiteSpace=wrap;html=1;" vertex="1" parent="1">
          <mxGeometry x="414" y="230" width="160" height="140" as="geometry" />
        </mxCell>
        <mxCell id="yqs4WaLGmonXQbpwF4tF-14" value="+ window_width: int&lt;br&gt;+ width: int&lt;br&gt;+ cell_list: dict" style="text;strokeColor=none;fillColor=none;align=left;verticalAlign=top;spacingLeft=4;spacingRight=4;overflow=hidden;rotatable=0;points=[[0,0.5],[1,0.5]];portConstraint=eastwest;whiteSpace=wrap;html=1;" vertex="1" parent="yqs4WaLGmonXQbpwF4tF-13">
          <mxGeometry y="26" width="160" height="54" as="geometry" />
        </mxCell>
        <mxCell id="yqs4WaLGmonXQbpwF4tF-15" value="" style="line;strokeWidth=1;fillColor=none;align=left;verticalAlign=middle;spacingTop=-1;spacingLeft=3;spacingRight=3;rotatable=0;labelPosition=right;points=[];portConstraint=eastwest;strokeColor=inherit;" vertex="1" parent="yqs4WaLGmonXQbpwF4tF-13">
          <mxGeometry y="80" width="160" height="8" as="geometry" />
        </mxCell>
        <mxCell id="yqs4WaLGmonXQbpwF4tF-16" value="+ set_up_piece_for_tkinter(&lt;br&gt;int, int, tuple, tuple, Figure): None" style="text;strokeColor=none;fillColor=none;align=left;verticalAlign=top;spacingLeft=4;spacingRight=4;overflow=hidden;rotatable=0;points=[[0,0.5],[1,0.5]];portConstraint=eastwest;whiteSpace=wrap;html=1;" vertex="1" parent="yqs4WaLGmonXQbpwF4tF-13">
          <mxGeometry y="88" width="160" height="52" as="geometry" />
        </mxCell>
        <mxCell id="yqs4WaLGmonXQbpwF4tF-17" value="Figure" style="swimlane;fontStyle=1;align=center;verticalAlign=top;childLayout=stackLayout;horizontal=1;startSize=26;horizontalStack=0;resizeParent=1;resizeParentMax=0;resizeLast=0;collapsible=1;marginBottom=0;whiteSpace=wrap;html=1;" vertex="1" parent="1">
          <mxGeometry x="610" y="273" width="160" height="100" as="geometry" />
        </mxCell>
        <mxCell id="yqs4WaLGmonXQbpwF4tF-18" value="+ pos: int" style="text;strokeColor=none;fillColor=none;align=left;verticalAlign=top;spacingLeft=4;spacingRight=4;overflow=hidden;rotatable=0;points=[[0,0.5],[1,0.5]];portConstraint=eastwest;whiteSpace=wrap;html=1;" vertex="1" parent="yqs4WaLGmonXQbpwF4tF-17">
          <mxGeometry y="26" width="160" height="26" as="geometry" />
        </mxCell>
        <mxCell id="yqs4WaLGmonXQbpwF4tF-19" value="" style="line;strokeWidth=1;fillColor=none;align=left;verticalAlign=middle;spacingTop=-1;spacingLeft=3;spacingRight=3;rotatable=0;labelPosition=right;points=[];portConstraint=eastwest;strokeColor=inherit;" vertex="1" parent="yqs4WaLGmonXQbpwF4tF-17">
          <mxGeometry y="52" width="160" height="8" as="geometry" />
        </mxCell>
        <mxCell id="yqs4WaLGmonXQbpwF4tF-20" value="+ set_up_figure(int, dict, tuple, tuple): tuple" style="text;strokeColor=none;fillColor=none;align=left;verticalAlign=top;spacingLeft=4;spacingRight=4;overflow=hidden;rotatable=0;points=[[0,0.5],[1,0.5]];portConstraint=eastwest;whiteSpace=wrap;html=1;" vertex="1" parent="yqs4WaLGmonXQbpwF4tF-17">
          <mxGeometry y="60" width="160" height="40" as="geometry" />
        </mxCell>
        <mxCell id="yqs4WaLGmonXQbpwF4tF-21" value="" style="shape=umlLifeline;perimeter=lifelinePerimeter;whiteSpace=wrap;html=1;container=1;dropTarget=0;collapsible=0;recursiveResize=0;outlineConnect=0;portConstraint=eastwest;newEdgeStyle={&quot;edgeStyle&quot;:&quot;elbowEdgeStyle&quot;,&quot;elbow&quot;:&quot;vertical&quot;,&quot;curved&quot;:0,&quot;rounded&quot;:0};size=0;" vertex="1" parent="1">
          <mxGeometry x="55" y="370" width="100" height="710" as="geometry" />
        </mxCell>
        <mxCell id="yqs4WaLGmonXQbpwF4tF-26" value="" style="html=1;points=[];perimeter=orthogonalPerimeter;outlineConnect=0;targetShapes=umlLifeline;portConstraint=eastwest;newEdgeStyle={&quot;edgeStyle&quot;:&quot;elbowEdgeStyle&quot;,&quot;elbow&quot;:&quot;vertical&quot;,&quot;curved&quot;:0,&quot;rounded&quot;:0};" vertex="1" parent="yqs4WaLGmonXQbpwF4tF-21">
          <mxGeometry x="45" y="30" width="10" height="240" as="geometry" />
        </mxCell>
        <mxCell id="yqs4WaLGmonXQbpwF4tF-22" value="" style="shape=umlLifeline;perimeter=lifelinePerimeter;whiteSpace=wrap;html=1;container=1;dropTarget=0;collapsible=0;recursiveResize=0;outlineConnect=0;portConstraint=eastwest;newEdgeStyle={&quot;edgeStyle&quot;:&quot;elbowEdgeStyle&quot;,&quot;elbow&quot;:&quot;vertical&quot;,&quot;curved&quot;:0,&quot;rounded&quot;:0};size=0;" vertex="1" parent="1">
          <mxGeometry x="250" y="370" width="100" height="710" as="geometry" />
        </mxCell>
        <mxCell id="yqs4WaLGmonXQbpwF4tF-27" value="" style="html=1;points=[];perimeter=orthogonalPerimeter;outlineConnect=0;targetShapes=umlLifeline;portConstraint=eastwest;newEdgeStyle={&quot;edgeStyle&quot;:&quot;elbowEdgeStyle&quot;,&quot;elbow&quot;:&quot;vertical&quot;,&quot;curved&quot;:0,&quot;rounded&quot;:0};" vertex="1" parent="yqs4WaLGmonXQbpwF4tF-22">
          <mxGeometry x="45" y="120" width="10" height="130" as="geometry" />
        </mxCell>
        <mxCell id="yqs4WaLGmonXQbpwF4tF-23" value="" style="shape=umlLifeline;perimeter=lifelinePerimeter;whiteSpace=wrap;html=1;container=1;dropTarget=0;collapsible=0;recursiveResize=0;outlineConnect=0;portConstraint=eastwest;newEdgeStyle={&quot;edgeStyle&quot;:&quot;elbowEdgeStyle&quot;,&quot;elbow&quot;:&quot;vertical&quot;,&quot;curved&quot;:0,&quot;rounded&quot;:0};size=0;" vertex="1" parent="1">
          <mxGeometry x="444" y="370" width="100" height="710" as="geometry" />
        </mxCell>
        <mxCell id="yqs4WaLGmonXQbpwF4tF-28" value="" style="html=1;points=[];perimeter=orthogonalPerimeter;outlineConnect=0;targetShapes=umlLifeline;portConstraint=eastwest;newEdgeStyle={&quot;edgeStyle&quot;:&quot;elbowEdgeStyle&quot;,&quot;elbow&quot;:&quot;vertical&quot;,&quot;curved&quot;:0,&quot;rounded&quot;:0};" vertex="1" parent="yqs4WaLGmonXQbpwF4tF-23">
          <mxGeometry x="45" y="270" width="10" height="440" as="geometry" />
        </mxCell>
        <mxCell id="yqs4WaLGmonXQbpwF4tF-24" value="" style="shape=umlLifeline;perimeter=lifelinePerimeter;whiteSpace=wrap;html=1;container=1;dropTarget=0;collapsible=0;recursiveResize=0;outlineConnect=0;portConstraint=eastwest;newEdgeStyle={&quot;edgeStyle&quot;:&quot;elbowEdgeStyle&quot;,&quot;elbow&quot;:&quot;vertical&quot;,&quot;curved&quot;:0,&quot;rounded&quot;:0};size=0;" vertex="1" parent="1">
          <mxGeometry x="640" y="373" width="100" height="710" as="geometry" />
        </mxCell>
        <mxCell id="yqs4WaLGmonXQbpwF4tF-29" value="" style="html=1;points=[];perimeter=orthogonalPerimeter;outlineConnect=0;targetShapes=umlLifeline;portConstraint=eastwest;newEdgeStyle={&quot;edgeStyle&quot;:&quot;elbowEdgeStyle&quot;,&quot;elbow&quot;:&quot;vertical&quot;,&quot;curved&quot;:0,&quot;rounded&quot;:0};" vertex="1" parent="yqs4WaLGmonXQbpwF4tF-24">
          <mxGeometry x="45" y="267" width="10" height="53" as="geometry" />
        </mxCell>
        <mxCell id="yqs4WaLGmonXQbpwF4tF-30" value="" style="endArrow=diamondThin;endFill=1;endSize=24;html=1;rounded=0;" edge="1" parent="1" target="yqs4WaLGmonXQbpwF4tF-21">
          <mxGeometry width="160" relative="1" as="geometry">
            <mxPoint x="300" y="490" as="sourcePoint" />
            <mxPoint x="460" y="490" as="targetPoint" />
          </mxGeometry>
        </mxCell>
        <mxCell id="yqs4WaLGmonXQbpwF4tF-31" value="" style="endArrow=block;dashed=1;endFill=0;endSize=12;html=1;rounded=0;" edge="1" parent="1" source="yqs4WaLGmonXQbpwF4tF-28" target="yqs4WaLGmonXQbpwF4tF-26">
          <mxGeometry width="160" relative="1" as="geometry">
            <mxPoint x="400" y="580" as="sourcePoint" />
            <mxPoint x="560" y="580" as="targetPoint" />
          </mxGeometry>
        </mxCell>
        <mxCell id="yqs4WaLGmonXQbpwF4tF-33" value="" style="endArrow=diamondThin;endFill=1;endSize=24;html=1;rounded=0;" edge="1" parent="1" source="yqs4WaLGmonXQbpwF4tF-29" target="yqs4WaLGmonXQbpwF4tF-23">
          <mxGeometry width="160" relative="1" as="geometry">
            <mxPoint x="500" y="700" as="sourcePoint" />
            <mxPoint x="660" y="700" as="targetPoint" />
          </mxGeometry>
        </mxCell>
        <mxCell id="yqs4WaLGmonXQbpwF4tF-35" value="" style="endArrow=block;dashed=1;endFill=0;endSize=12;html=1;rounded=0;" edge="1" parent="1">
          <mxGeometry width="160" relative="1" as="geometry">
            <mxPoint x="110" y="620" as="sourcePoint" />
            <mxPoint x="300" y="620" as="targetPoint" />
            <Array as="points">
              <mxPoint x="220" y="620" />
            </Array>
          </mxGeometry>
        </mxCell>
      </root>
    </mxGraphModel>
  </diagram>
</mxfile>
